<svg width="21" height="21" viewBox="0 0 21 21" fill="none" xmlns="http://www.w3.org/2000/svg">
<path d="M1.65837 13.625H6.51232C6.39522 12.6379 6.33325 11.588 6.33325 10.5C6.33325 9.41202 6.39522 8.36213 6.51232 7.375H1.65837C1.3129 8.35243 1.12492 9.40426 1.12492 10.5C1.12492 11.5957 1.3129 12.6476 1.65837 13.625ZM2.09942 14.6667C3.3394 17.1618 5.65833 19.0262 8.44576 19.6493C7.63418 18.5446 7.01259 16.7887 6.66008 14.6667H2.09942ZM19.3415 13.625C19.6869 12.6476 19.8749 11.5957 19.8749 10.5C19.8749 9.40426 19.6869 8.35243 19.3415 7.375H14.4875C14.6046 8.36213 14.6666 9.41202 14.6666 10.5C14.6666 11.588 14.6046 12.6379 14.4875 13.625H19.3415ZM18.9004 14.6667H14.3398C13.9873 16.7887 13.3657 18.5446 12.5541 19.6493C15.3415 19.0262 17.6604 17.1618 18.9004 14.6667ZM7.56701 13.625H13.4328C13.5562 12.6483 13.6249 11.5967 13.6249 10.5C13.6249 9.4033 13.5562 8.35167 13.4328 7.375H7.56701C7.44365 8.35167 7.37492 9.4033 7.37492 10.5C7.37492 11.5967 7.44365 12.6483 7.56701 13.625ZM7.72386 14.6667C8.26781 17.7582 9.37291 19.875 10.4999 19.875C11.6269 19.875 12.732 17.7582 13.276 14.6667H7.72386ZM2.09942 6.33333H6.66008C7.01259 4.21131 7.63418 2.45544 8.44576 1.35073C5.65833 1.97383 3.3394 3.83818 2.09942 6.33333ZM18.9004 6.33333C17.6604 3.83818 15.3415 1.97383 12.5541 1.35073C13.3657 2.45544 13.9873 4.21131 14.3398 6.33333H18.9004ZM7.72386 6.33333H13.276C12.732 3.24184 11.6269 1.12499 10.4999 1.12499C9.37291 1.12499 8.26781 3.24184 7.72386 6.33333ZM10.4999 20.9167C4.74695 20.9167 0.083252 16.253 0.083252 10.5C0.083252 4.74703 4.74695 0.0833282 10.4999 0.0833282C16.2529 0.0833282 20.9166 4.74703 20.9166 10.5C20.9166 16.253 16.2529 20.9167 10.4999 20.9167Z" fill="black"/>
</svg>
