<svg width="30" height="30" viewBox="0 0 14 15" fill="none" xmlns="http://www.w3.org/2000/svg">
<g clip-path="url(#clip0_57_26)">
<path d="M5.10071 8.44789C5.10071 8.27251 4.95846 8.13043 4.78294 8.13043H3.67404C3.49872 8.13043 3.35645 8.27251 3.35645 8.44789V9.55664C3.35645 9.73225 3.49872 9.87438 3.67404 9.87438H4.78294C4.95846 9.87438 5.10071 9.73225 5.10071 9.55664V8.44789Z" fill="currentColor"/>
<path d="M7.872 8.44789C7.872 8.27251 7.72972 8.13043 7.55455 8.13043H6.44552C6.27021 8.13043 6.12793 8.27251 6.12793 8.44789V9.55664C6.12793 9.73225 6.27021 9.87438 6.44552 9.87438H7.55455C7.72972 9.87438 7.872 9.73225 7.872 9.55664V8.44789Z" fill="currentColor"/>
<path d="M10.6437 8.44789C10.6437 8.27251 10.5014 8.13043 10.3261 8.13043H9.21718C9.04166 8.13043 8.89941 8.27251 8.89941 8.44789V9.55664C8.89941 9.73225 9.04166 9.87438 9.21718 9.87438H10.3261C10.5014 9.87438 10.6437 9.73225 10.6437 9.55664V8.44789Z" fill="currentColor"/>
<path d="M5.10071 11.2195C5.10071 11.0438 4.95846 10.9018 4.78294 10.9018H3.67404C3.49872 10.9018 3.35645 11.0438 3.35645 11.2195V12.328C3.35645 12.5035 3.49872 12.6456 3.67404 12.6456H4.78294C4.95846 12.6456 5.10071 12.5035 5.10071 12.328V11.2195Z" fill="currentColor"/>
<path d="M7.872 11.2195C7.872 11.0438 7.72972 10.9018 7.55455 10.9018H6.44552C6.27021 10.9018 6.12793 11.0438 6.12793 11.2195V12.328C6.12793 12.5035 6.27021 12.6456 6.44552 12.6456H7.55455C7.72972 12.6456 7.872 12.5035 7.872 12.328V11.2195Z" fill="currentColor"/>
<path d="M10.6437 11.2195C10.6437 11.0438 10.5014 10.9018 10.3262 10.9018H9.21718C9.04166 10.9018 8.89941 11.0438 8.89941 11.2195V12.328C8.89941 12.5035 9.04166 12.6456 9.21718 12.6456H10.3262C10.5014 12.6456 10.6437 12.5035 10.6437 12.328V11.2195Z" fill="currentColor"/>
<path d="M12.6264 2.283V3.97653C12.6264 4.74199 12.0054 5.35883 11.2401 5.35883H10.3656C9.60015 5.35883 8.97095 4.74199 8.97095 3.97653V2.27692H5.02923V3.97653C5.02923 4.74199 4.40005 5.35883 3.63477 5.35883H2.76007C1.99475 5.35883 1.37381 4.74199 1.37381 3.97653V2.283C0.704918 2.30316 0.155273 2.85665 0.155273 3.53696V13.4619C0.155273 14.155 0.717049 14.7242 1.41015 14.7242H12.59C13.2821 14.7242 13.8449 14.1538 13.8449 13.4619V3.53696C13.8449 2.85665 13.2953 2.30316 12.6264 2.283ZM12.2202 12.8438C12.2202 13.1434 11.9773 13.3864 11.6777 13.3864H2.29859C1.99894 13.3864 1.75608 13.1434 1.75608 12.8438V7.71725C1.75608 7.4176 1.99891 7.1746 2.29859 7.1746H11.6777C11.9773 7.1746 12.2202 7.4176 12.2202 7.71725L12.2202 12.8438Z" fill="currentColor"/>
<path d="M2.75694 4.45092H3.62198C3.88454 4.45092 4.09743 4.23835 4.09743 3.97579V1.19946C4.09743 0.936868 3.88454 0.724152 3.62198 0.724152H2.75694C2.49435 0.724152 2.28149 0.936868 2.28149 1.19946V3.97579C2.28149 4.23835 2.49435 4.45092 2.75694 4.45092Z" fill="currentColor"/>
<path d="M10.3543 4.45092H11.2194C11.4818 4.45092 11.6946 4.23835 11.6946 3.97579V1.19946C11.6947 0.936868 11.4818 0.724152 11.2194 0.724152H10.3543C10.0918 0.724152 9.87891 0.936868 9.87891 1.19946V3.97579C9.87891 4.23835 10.0918 4.45092 10.3543 4.45092Z" fill="currentColor"/>
</g>
<defs>
<clipPath id="clip0_57_26">
<rect width="30" height="30" fill="white" transform="translate(0 0.724152)"/>
</clipPath>
</defs>
</svg>
