<svg width="14" height="14" viewBox="0 0 14 14" fill="none" xmlns="http://www.w3.org/2000/svg">
<path d="M10.8229 1.6967L7.00008 5.5195L3.17728 1.6967C2.76845 1.28786 2.10562 1.28786 1.69678 1.6967C1.28794 2.10554 1.28794 2.76837 1.69678 3.1772L5.51958 7L1.69678 10.8228C1.28794 11.2316 1.28794 11.8945 1.69678 12.3033C2.10562 12.7121 2.76845 12.7121 3.17728 12.3033L7.00008 8.4805L10.8229 12.3033C11.2317 12.7121 11.8945 12.7121 12.3034 12.3033C12.7122 11.8945 12.7122 11.2316 12.3034 10.8228L8.48059 7L12.3034 3.1772C12.7122 2.76837 12.7122 2.10554 12.3034 1.6967C11.8945 1.28786 11.2317 1.28786 10.8229 1.6967Z" fill="currentColor" stroke="currentColor"/>
</svg>
