<svg width="14" height="14" viewBox="0 0 14 14" fill="none" xmlns="http://www.w3.org/2000/svg">
<path d="M12.0901 3.96484C12.3795 3.96484 12.5802 3.67224 12.4716 3.40391C12.0863 2.45123 11.1516 1.77734 10.0624 1.77734H9.5589C9.37113 0.785504 8.50152 0 7.43741 0H6.56241C5.49898 0 4.6288 0.784984 4.44092 1.77734H3.93741C2.8482 1.77734 1.91354 2.45123 1.52818 3.40391C1.41965 3.67224 1.62033 3.96484 1.90976 3.96484H12.0901ZM6.56241 0.820312H7.43741C8.03624 0.820312 8.54456 1.2232 8.71568 1.77734H5.28414C5.45526 1.2232 5.96358 0.820312 6.56241 0.820312Z" fill="currentColor"/>
<path d="M3.03649 12.8569C3.08213 13.4979 3.62126 14 4.26384 14H9.7359C10.3785 14 10.9176 13.4979 10.9633 12.8569L11.5381 4.78516H2.46167L3.03649 12.8569ZM8.1215 6.97952C8.13282 6.75328 8.32573 6.5788 8.55161 6.59036C8.77786 6.60168 8.95209 6.79427 8.94077 7.02048L8.72202 11.3955C8.71106 11.6147 8.52982 11.7852 8.31271 11.7852C8.07654 11.7852 7.89107 11.5877 7.90272 11.3545L8.1215 6.97952ZM5.44815 6.59036C5.6741 6.57902 5.86698 6.7533 5.87827 6.97952L6.09702 11.3545C6.10867 11.5878 5.92306 11.7852 5.68703 11.7852C5.46992 11.7852 5.28869 11.6147 5.27772 11.3955L5.05897 7.02048C5.04768 6.79427 5.22191 6.60168 5.44815 6.59036Z" fill="currentColor"/>
</svg>
