<svg width="14" height="14" viewBox="0 0 14 14" fill="none" xmlns="http://www.w3.org/2000/svg">
<g clip-path="url(#clip0_39_141)">
<path d="M10.8815 9.02598C10.5054 9.02598 10.2014 9.32999 10.2014 9.70607V11.8423C10.2014 12.2177 9.89676 12.5223 9.52136 12.5223H2.04027C1.66485 12.5223 1.36019 12.2177 1.36019 11.8423V3.00103C1.36019 2.62561 1.66488 2.32095 2.04027 2.32095H5.99162C6.3677 2.32095 6.6717 2.01695 6.6717 1.64087C6.6717 1.26479 6.3677 0.960785 5.99162 0.960785H2.04027C0.915398 0.96073 0 1.87616 0 3.00103V11.8423C0 12.9671 0.915398 13.8825 2.04027 13.8825H9.52131C10.6462 13.8825 11.5616 12.9678 11.5616 11.8423V9.70609C11.5616 9.32998 11.2576 9.02598 10.8815 9.02598Z" fill="currentColor"/>
<path d="M13.2394 0.874361C12.7456 0.380624 12.1009 0.131691 11.4514 0.118101C10.7679 0.103144 10.0803 0.350683 9.56342 0.868236L4.95915 5.47249C4.28722 6.14716 3.91724 7.04216 3.91724 7.99291V9.51631C3.91724 9.89239 4.22124 10.1964 4.59732 10.1964H6.12073C7.07151 10.1964 7.96651 9.82641 8.64184 9.1538L13.24 4.55567C14.2534 3.5417 14.2534 1.88907 13.2394 0.874361ZM7.68091 8.19153C7.26401 8.60707 6.70905 8.83626 6.12078 8.83626H5.27743V7.99294C5.27743 7.40465 5.50662 6.84969 5.92148 6.43347L8.95675 3.3982L10.7155 5.15692L7.68091 8.19153ZM12.2777 3.59474L11.6771 4.19528L9.91842 2.43656L10.5189 1.83605C11.0045 1.35046 11.7934 1.35183 12.2777 1.83605C12.7619 2.32093 12.7619 3.10984 12.2777 3.59474Z" fill="currentColor"/>
</g>
<defs>
<clipPath id="clip0_39_141">
<rect width="14" height="14" fill="white"/>
</clipPath>
</defs>
</svg>
