<svg width="30" height="30" viewBox="0 0 30 30" fill="none" xmlns="http://www.w3.org/2000/svg">
<g clip-path="url(#clip0_39_43)">
<path d="M29.4965 13.6565L24.9498 9.10988V3.85774C24.9498 2.90808 24.1803 2.13845 23.2292 2.13845C22.2804 2.13845 21.5108 2.90808 21.5108 3.85774V5.67088L18.1255 2.28542C16.4517 0.612588 13.5416 0.615555 11.8717 2.28845L0.503384 13.6565C-0.167713 14.329 -0.167713 15.417 0.503384 16.0884C1.17478 16.7606 2.26494 16.7606 2.93609 16.0884L14.3033 4.72001C14.6736 4.35164 15.3263 4.35164 15.6947 4.71892L27.0638 16.0884C27.401 16.4245 27.8405 16.5917 28.2799 16.5917C28.7202 16.5917 29.1605 16.4244 29.4966 16.0884C30.1679 15.417 30.1679 14.329 29.4965 13.6565Z" fill="currentColor"/>
<path d="M15.5972 7.9836C15.267 7.6535 14.7322 7.6535 14.4029 7.9836L4.40326 17.9802C4.24539 18.138 4.15588 18.3535 4.15588 18.5784V25.8695C4.15588 27.5804 5.54313 28.9676 7.254 28.9676H12.2048V21.3005H17.7942V28.9676H22.7451C24.4559 28.9676 25.8431 27.5804 25.8431 25.8696V18.5784C25.8431 18.3535 25.7544 18.138 25.5957 17.9802L15.5972 7.9836Z" fill="currentColor"/>
</g>
<defs>
<clipPath id="clip0_39_43">
<rect width="30" height="30" fill="white"/>
</clipPath>
</defs>
</svg>
