<svg width="16" height="22" viewBox="0 0 16 22" fill="none" xmlns="http://www.w3.org/2000/svg">
<path d="M13.432 1.38221V19.1015L10.2109 16.5707C9.60835 16.0972 8.79109 15.8313 7.93894 15.8313C7.08679 15.8313 6.26954 16.0972 5.66697 16.5707L2.55761 19.013V1.38221H13.432ZM13.7346 0H2.25591C1.86967 0.000183093 1.49932 0.120839 1.2262 0.33543C0.953086 0.55002 0.79955 0.841 0.799317 1.14448V21.6012C0.799199 21.6423 0.809434 21.6829 0.829449 21.7208C0.849464 21.7588 0.878851 21.7932 0.91591 21.8221C0.952968 21.851 0.996966 21.8739 1.04535 21.8894C1.09373 21.9048 1.14553 21.9126 1.19776 21.9122C1.2492 21.9122 1.30014 21.9041 1.34756 21.8885C1.39498 21.8728 1.43795 21.8498 1.47396 21.821L6.91158 17.5486C7.18423 17.3345 7.55392 17.2142 7.93938 17.2142C8.32485 17.2142 8.69454 17.3345 8.96719 17.5486L14.5174 21.9088C14.5532 21.9378 14.5962 21.961 14.6436 21.9768C14.6911 21.9926 14.7421 22.0007 14.7936 22.0007C14.8459 22.001 14.8977 21.9931 14.9461 21.9776C14.9945 21.962 15.0384 21.9391 15.0755 21.9101C15.1125 21.8811 15.1419 21.8467 15.1619 21.8087C15.1819 21.7708 15.1922 21.7301 15.192 21.689V1.14448C15.1918 0.841 15.0383 0.55002 14.7652 0.33543C14.492 0.120839 14.1217 0.000183093 13.7355 0H13.7346Z" fill="white"/>
<path d="M4.0652 19.0089C3.97772 19.0089 3.89382 18.9816 3.83196 18.933C3.7701 18.8844 3.73535 18.8185 3.73535 18.7497V0.953745C3.73535 0.88501 3.7701 0.81911 3.83196 0.770507C3.89382 0.721904 3.97772 0.69458 4.0652 0.69458C4.15268 0.69458 4.23658 0.721904 4.29844 0.770507C4.36029 0.81911 4.39504 0.88501 4.39504 0.953745V18.7497C4.39504 18.8185 4.36029 18.8844 4.29844 18.933C4.23658 18.9816 4.15268 19.0089 4.0652 19.0089Z" fill="white"/>
<path d="M11.926 19.0089C11.8386 19.0089 11.7547 18.9816 11.6928 18.933C11.6309 18.8844 11.5962 18.8185 11.5962 18.7497V0.953745C11.5962 0.88501 11.6309 0.81911 11.6928 0.770507C11.7547 0.721904 11.8386 0.69458 11.926 0.69458C12.0135 0.69458 12.0974 0.721904 12.1593 0.770507C12.2211 0.81911 12.2559 0.88501 12.2559 0.953745V18.7497C12.2559 18.8185 12.2211 18.8844 12.1593 18.933C12.0974 18.9816 12.0135 19.0089 11.926 19.0089Z" fill="white"/>
</svg>
