<svg width="30" height="30" viewBox="0 0 30 30" fill="none" xmlns="http://www.w3.org/2000/svg">
<path d="M18 19V17C18.45 16.777 19.737 15.245 19.872 14.048C20.226 14.021 20.782 13.696 20.946 12.413C21.034 11.724 20.684 11.337 20.472 11.215C20.472 11.215 21 10.212 21 9.001C21 6.573 20.047 4.501 18 4.501C18 4.501 17.289 3.001 15 3.001C10.758 3.001 9 5.722 9 9.001C9 10.105 9.528 11.215 9.528 11.215C9.316 11.337 8.966 11.725 9.054 12.413C9.218 13.696 9.774 14.021 10.128 14.048C10.263 15.245 11.55 16.777 12 17V19C11 22 3 20 3 27H27C27 20 19 22 18 19Z" fill="currentColor"/>
</svg>
